<svg id="_1" data-name="1" xmlns="http://www.w3.org/2000/svg" width="241.454" height="179.993" viewBox="0 0 241.454 179.993">
  <ellipse id="Ellipse_1" data-name="Ellipse 1" cx="118.869" cy="11.609" rx="118.869" ry="11.609" transform="translate(0 156.774)" fill="#3f3d56"/>
  <ellipse id="Ellipse_2" data-name="Ellipse 2" cx="56.028" cy="8.455" rx="56.028" ry="8.455" transform="translate(27.509 158.288)" opacity="0.1"/>
  <path id="Path_3" data-name="Path 3" d="M200.871,354.14a47.641,47.641,0,1,0,9.651,94.3A47.667,47.667,0,0,1,241.6,377.051,47.613,47.613,0,0,0,200.871,354.14Z" transform="translate(-145.255 -288.335)" fill="#6c63ff"/>
  <path id="Path_4" data-name="Path 4" d="M158.038,404.168a47.667,47.667,0,0,1,55.283-47.026,47.648,47.648,0,1,0-20.061,93.03A47.656,47.656,0,0,1,158.038,404.168Z" transform="translate(-145.255 -289.352)" opacity="0.1"/>
  <path id="Path_5" data-name="Path 5" d="M288.107,181.77a47.619,47.619,0,1,0-71.387-31.075,47.658,47.658,0,0,1,71.387,31.075Z" transform="translate(-191.989 -93.4)" fill="#6c63ff"/>
  <path id="Path_6" data-name="Path 6" d="M441.972,141.041a47.571,47.571,0,0,1-19.36,38.339c.2.79.394,1.585.56,2.39A47.646,47.646,0,0,0,398.444,93.4c-.689,0-1.373.018-2.054.048A47.644,47.644,0,0,1,441.972,141.041Z" transform="translate(-327.047 -93.4)" opacity="0.1"/>
  <path id="Path_7" data-name="Path 7" d="M474.51,508.426a14.219,14.219,0,0,0-2.216,1.4,4.765,4.765,0,0,0-1.542,2.087,19.221,19.221,0,0,1-.954-2.822,46.953,46.953,0,0,0-1.948-5.07,6.756,6.756,0,0,0,3.066-2.355,14.98,14.98,0,0,1,3.806,5.048c.129.343.5.709.593,1.01C475.434,508.174,474.838,508.244,474.51,508.426Z" transform="translate(-380.472 -398.632)" fill="#ffbfc5"/>
  <path id="Path_8" data-name="Path 8" d="M329,675.089c0,11.261,8.124,12.455,18.148,12.455s18.146-1.194,18.146-12.455-8.124-15.539-18.146-15.539S329,663.83,329,675.089Z" transform="translate(-276.665 -516.667)" fill="#3f3d56"/>
  <path id="Path_9" data-name="Path 9" d="M542.154,673.093a13.9,13.9,0,0,1,4.528,2.423.467.467,0,0,1,.2.278c.035.252-.313.366-.565.439-.757.215-1.219.914-1.767,1.459s-1.426.977-2.064.54a2.018,2.018,0,0,1-.434-.457l-2.7-3.513a16.322,16.322,0,0,1,2.87-1.262" transform="translate(-433.935 -526.722)" fill="#f1f1f1"/>
  <path id="Path_10" data-name="Path 10" d="M551.443,674.942c.358.363.5.888.863,1.262a3.085,3.085,0,0,0,.8.553l2.064,1.136a5.711,5.711,0,0,0,1.009.472,8.973,8.973,0,0,0,1.184.252,8.522,8.522,0,0,1,1.671.5c.4.167.856.452.853.888a.964.964,0,0,1-.252.575c-.813,1.025-2.254,1.262-3.556,1.391a24.928,24.928,0,0,1-8.452-.144,3.606,3.606,0,0,1-1.487-.644,2.812,2.812,0,0,1-.686-2.975,1.61,1.61,0,0,1,.656-.977,3.4,3.4,0,0,1,1.481-.172,4.672,4.672,0,0,0,1.514-.487c.315-.141.676-.326.757-.7s-.346-.7-.252-1.01C549.785,674.164,551.115,674.606,551.443,674.942Z" transform="translate(-438.376 -527.839)" fill="#575a89"/>
  <path id="Path_11" data-name="Path 11" d="M551.443,674.942c.358.363.5.888.863,1.262a3.085,3.085,0,0,0,.8.553l2.064,1.136a5.711,5.711,0,0,0,1.009.472,8.973,8.973,0,0,0,1.184.252,8.522,8.522,0,0,1,1.671.5c.4.167.856.452.853.888a.964.964,0,0,1-.252.575c-.813,1.025-2.254,1.262-3.556,1.391a24.928,24.928,0,0,1-8.452-.144,3.606,3.606,0,0,1-1.487-.644,2.812,2.812,0,0,1-.686-2.975,1.61,1.61,0,0,1,.656-.977,3.4,3.4,0,0,1,1.481-.172,4.672,4.672,0,0,0,1.514-.487c.315-.141.676-.326.757-.7s-.346-.7-.252-1.01C549.785,674.164,551.115,674.606,551.443,674.942Z" transform="translate(-438.376 -527.839)" opacity="0.1"/>
  <path id="Path_12" data-name="Path 12" d="M569.225,713.571l.868.573a1.553,1.553,0,0,1,.628.621,1.427,1.427,0,0,1-.348,1.33,7.642,7.642,0,0,1-3.341,2.589,4.982,4.982,0,0,1-1.451.361.606.606,0,0,1-.336-.04c-.265-.141-.227-.517-.23-.818a3.528,3.528,0,0,0-1.262-2.208,2.9,2.9,0,0,1-1.052-2.271,2.827,2.827,0,0,1,.757-1.333,5.451,5.451,0,0,1,1.136-1.073c.613-.4.828-.184,1.4.182Q567.62,712.516,569.225,713.571Z" transform="translate(-451.37 -555.197)" fill="#f1f1f1"/>
  <path id="Path_13" data-name="Path 13" d="M568.99,725.275a1.547,1.547,0,0,0,1.365-.308,3.421,3.421,0,0,0,.886-1.141,9.268,9.268,0,0,0,.55-1.206,2.577,2.577,0,0,1,.777-1.32,1.622,1.622,0,0,1,1.767.129,9.741,9.741,0,0,1,1.36,1.3,9.192,9.192,0,0,0,3.861,2.148,41.855,41.855,0,0,0,4.361.931,2.473,2.473,0,0,1,.838.27,1.689,1.689,0,0,1,.623,1.837,4.015,4.015,0,0,1-1.08,1.731,4.352,4.352,0,0,1-1.446,1.118,4.616,4.616,0,0,1-1.461.278,24.958,24.958,0,0,1-7.218-.565,19.3,19.3,0,0,0-2.645-.527c-.543-.048-1.093-.033-1.635-.071a8.613,8.613,0,0,1-3.124-.823,1.1,1.1,0,0,1-.568-.474,1.166,1.166,0,0,1-.043-.626l.361-3.165c.033-.275.124-.618.4-.661s.449.227.613.434a2.239,2.239,0,0,0,2.678.586" transform="translate(-453.952 -562.677)" fill="#575a89"/>
  <path id="Path_14" data-name="Path 14" d="M451.488,579.256c1.587-.179,3.43-.209,4.5.974a5.9,5.9,0,0,1,1.085,2.7,17.5,17.5,0,0,0,1.721,4.583,25.926,25.926,0,0,1,1.514,2.678,18.446,18.446,0,0,1,.777,3.051,18.408,18.408,0,0,0,6.446,10.257c-.573,1.557-2.231,2.448-3.844,2.847a2.117,2.117,0,0,1-1.2.038,2.151,2.151,0,0,1-.78-.575,26.753,26.753,0,0,1-2.1-2.577c-2.324-3.1-4.682-6.272-5.949-9.934-.444-1.287-.888-2.776-2.138-3.324a4.058,4.058,0,0,0-2.292-.081,31.054,31.054,0,0,0-5.027,1.29c-1.746.608-3.745,1.355-5.343.427a3.983,3.983,0,0,1-1.734-2.711,11.165,11.165,0,0,1,0-3.306,3.4,3.4,0,0,1,.348-1.428,3.1,3.1,0,0,1,.835-.845,17.2,17.2,0,0,1,4.7-2.524,30.032,30.032,0,0,1,5.032-1.042Q449.76,579.451,451.488,579.256Z" transform="translate(-357.407 -456.568)" fill="#575a89"/>
  <path id="Path_15" data-name="Path 15" d="M451.488,579.256c1.587-.179,3.43-.209,4.5.974a5.9,5.9,0,0,1,1.085,2.7,17.5,17.5,0,0,0,1.721,4.583,25.926,25.926,0,0,1,1.514,2.678,18.446,18.446,0,0,1,.777,3.051,18.408,18.408,0,0,0,6.446,10.257c-.573,1.557-2.231,2.448-3.844,2.847a2.117,2.117,0,0,1-1.2.038,2.151,2.151,0,0,1-.78-.575,26.753,26.753,0,0,1-2.1-2.577c-2.324-3.1-4.682-6.272-5.949-9.934-.444-1.287-.888-2.776-2.138-3.324a4.058,4.058,0,0,0-2.292-.081,31.054,31.054,0,0,0-5.027,1.29c-1.746.608-3.745,1.355-5.343.427a3.983,3.983,0,0,1-1.734-2.711,11.165,11.165,0,0,1,0-3.306,3.4,3.4,0,0,1,.348-1.428,3.1,3.1,0,0,1,.835-.845,17.2,17.2,0,0,1,4.7-2.524,30.032,30.032,0,0,1,5.032-1.042Q449.76,579.451,451.488,579.256Z" transform="translate(-357.407 -456.568)" opacity="0.1"/>
  <path id="Path_16" data-name="Path 16" d="M521.294,622.447a8.194,8.194,0,0,1,2.019,1.426,7.245,7.245,0,0,1,1.368,2.456,2.978,2.978,0,0,1,.237.949,1.078,1.078,0,0,1-.351.878,1.572,1.572,0,0,1-.992.252c-.459,0-.921,0-1.38-.035a2.307,2.307,0,0,1-.818-.156,2.269,2.269,0,0,1-.636-.482,8.941,8.941,0,0,1-1.956-2.64c-.333-.734-.883-2.43-.358-3.2S520.724,622.121,521.294,622.447Z" transform="translate(-418.122 -488.306)" fill="#ffbfc5"/>
  <path id="Path_17" data-name="Path 17" d="M390.279,623.87a33.928,33.928,0,0,0,7.306,1.068,61.023,61.023,0,0,1,12.177,2.408,6.535,6.535,0,0,1,2.3,1.068,6.828,6.828,0,0,1,1.333,1.7,28.643,28.643,0,0,1,1.749,3.059c.447.954.787,1.953,1.2,2.92a20.521,20.521,0,0,0,6.4,8.2,2.784,2.784,0,0,1,1.214,1.443,2,2,0,0,1-.189,1.186,7.391,7.391,0,0,1-3.182,3.223,3.342,3.342,0,0,0-1.469,1.28,11.61,11.61,0,0,1-4.735-4.371,30.458,30.458,0,0,0-3.932-5.166,13.948,13.948,0,0,1-2.047-2c-.84-1.191-1.068-2.822-2.2-3.74s-2.776-.8-4.237-.656a103.973,103.973,0,0,1-22.5-.252,11.261,11.261,0,0,1-4.492-1.221,4.159,4.159,0,0,1-2.2-3.846,4.269,4.269,0,0,1,2.738-3.172,15.4,15.4,0,0,1,4.29-.835A44.855,44.855,0,0,0,390.279,623.87Z" transform="translate(-309.375 -489.992)" fill="#575a89"/>
  <path id="Path_18" data-name="Path 18" d="M356.826,539.2c.184-1.232.661-2.4.962-3.607a21.821,21.821,0,0,1,.57-2.254c0-.023.018-.043.025-.063a.52.52,0,0,0,.384-.22.637.637,0,0,0,.033-.338,2.456,2.456,0,0,1,0-.361,25.8,25.8,0,0,1,1.61-2.385c1.009-1.441,1.9-2.973,2.776-4.5.722-1.262,1.444-2.509,2.039-3.826.449-.987.825-2.019,1.32-2.973a19.283,19.283,0,0,1,8.328-7.781A104.651,104.651,0,0,1,385.1,506.59a2.322,2.322,0,0,1,.24.283c1.855,2.536,2.054,5.868,2.819,8.917a15.584,15.584,0,0,1,.719,3.725,11.41,11.41,0,0,1-1.787,5.262,28.447,28.447,0,0,1-2.8,4.475c-.525.651-1.1,1.262-1.63,1.905-2.165,2.652-3.415,5.916-4.631,9.118-.7,1.855-1.852,3.5-2.625,5.325a20.853,20.853,0,0,1-.843,2.122,2.247,2.247,0,0,1-1.784,1.262,2.675,2.675,0,0,1-.659-.1c-2.758-.709-5.068-2.524-7.359-4.225-.411-.3-.823-.6-1.262-.873s-.883-.522-1.333-.757l-1.025-.563c-1.116-.611-2.236-1.224-3.4-1.741a6.182,6.182,0,0,1-1.009-.5,6.023,6.023,0,0,1,.1-1.012Z" transform="translate(-297.396 -402.31)" fill="#3f3d56"/>
  <circle id="Ellipse_3" data-name="Ellipse 3" cx="6.355" cy="6.355" r="6.355" transform="translate(89.134 96.872)" fill="#ffbfc5"/>
  <path id="Path_19" data-name="Path 19" d="M475.732,467.265A1.514,1.514,0,0,0,477.3,468a2.193,2.193,0,0,0,1.461-1.042,4.12,4.12,0,0,0,.54-1.751,1.83,1.83,0,0,0-.265-1.386,3.044,3.044,0,0,0-.805-.565,3.064,3.064,0,0,1-1.01-1.01c-.177-.3-.305-.616-.464-.919a3.408,3.408,0,0,0-2.943-1.951,14.049,14.049,0,0,0-1.752.348c-1.971.346-4.111-.7-5.941.116a5.552,5.552,0,0,0-1.242.828q-.772.638-1.484,1.343a3.064,3.064,0,0,0-.9,1.315c-.252.934.341,1.976-.035,2.864a4.219,4.219,0,0,1-.457.719c-.414.608.035,2.983,0,3.718a1.375,1.375,0,0,0,.252,1.009,1.657,1.657,0,0,0,1.262.368h.825a1.047,1.047,0,0,0,.366-.038,1.108,1.108,0,0,0,.416-.318c.686-.724.833-3.089,1.83-3.079a.712.712,0,0,1,.432.111c.179.131.232.376.361.558a1.055,1.055,0,0,0,1.224.288,2.761,2.761,0,0,0,1.042-.843,4.107,4.107,0,0,1,.974-.931c.533-.31,1.133-.444,1.651-.795a14.3,14.3,0,0,0,1.065-1.04.9.9,0,0,1,1.131-.063C475.427,466.185,475.452,466.71,475.732,467.265Z" transform="translate(-375.965 -367.011)" fill="#3f3d56"/>
  <path id="Path_20" data-name="Path 20" d="M439.111,534.7a10.112,10.112,0,0,1,4.427.353,2.351,2.351,0,0,1,1.234.734,2.216,2.216,0,0,1,.353.924,7.468,7.468,0,0,1-.538,4.5.6.6,0,0,0-.073.48.846.846,0,0,0,.252.252.878.878,0,0,1-.053,1.31c-.119.086-.275.162-.3.305s.124.283.24.394a1.411,1.411,0,0,1,.394,1.3,2.844,2.844,0,0,0-.129.573,1.869,1.869,0,0,0,.209.684,2.994,2.994,0,0,1,.189,1.514,1.669,1.669,0,0,0-.018.74,1.72,1.72,0,0,0,.283.444c.457.616.555,1.646-.106,2.019a1.532,1.532,0,0,1,.815,1.58c.4-.209.876.061,1.206.363s.666.676,1.113.7c.313.015.644-.146.926-.018.434.194.419.9.845,1.108.374.187.9-.116,1.214.154.111.093.167.237.275.336.24.222.618.129.946.114a2.253,2.253,0,0,1,1.89,1.156,5.627,5.627,0,0,1,.649,2.213,2.93,2.93,0,0,1-.025,1.275,1.093,1.093,0,0,1-.9.808c-3.9.252-7.748-.684-11.546-1.608a8.977,8.977,0,0,1-3.18-1.262,9.707,9.707,0,0,1-2.072-2.324,22.664,22.664,0,0,1-4.982-12.041,6.649,6.649,0,0,1-.164-1.994,5.651,5.651,0,0,1,.878-2.186,23.8,23.8,0,0,1,1.767-2.506A6.55,6.55,0,0,1,439.111,534.7Z" transform="translate(-354.027 -423.25)" opacity="0.1"/>
  <path id="Path_21" data-name="Path 21" d="M440.165,533.7a10.1,10.1,0,0,1,4.429.356,2.332,2.332,0,0,1,1.234.732,2.251,2.251,0,0,1,.353.924,7.485,7.485,0,0,1-.538,4.5.6.6,0,0,0-.073.479.848.848,0,0,0,.252.252.878.878,0,0,1-.053,1.31c-.119.086-.275.161-.3.305s.124.283.252.394a1.411,1.411,0,0,1,.394,1.3,2.839,2.839,0,0,0-.129.573,1.864,1.864,0,0,0,.207.684,2.97,2.97,0,0,1,.192,1.514,1.09,1.09,0,0,0,.265,1.184c.457.616.555,1.646-.106,2.034a1.527,1.527,0,0,1,.815,1.577c.4-.209.876.061,1.206.363s.666.676,1.113.7c.313.015.641-.146.926-.018.434.2.419.9.845,1.11.374.184.9-.119,1.214.151.111.093.167.237.275.336.24.222.618.129.946.114a2.253,2.253,0,0,1,1.89,1.156,5.678,5.678,0,0,1,.649,2.213,3.011,3.011,0,0,1-.025,1.262,1.093,1.093,0,0,1-.9.808c-3.9.252-7.748-.684-11.546-1.608a8.96,8.96,0,0,1-3.18-1.262,9.657,9.657,0,0,1-2.072-2.324,22.642,22.642,0,0,1-4.982-12.038,6.661,6.661,0,0,1-.164-2,5.65,5.65,0,0,1,.856-2.188,23.159,23.159,0,0,1,1.767-2.5A6.568,6.568,0,0,1,440.165,533.7Z" transform="translate(-354.827 -422.503)" fill="#3f3d56"/>
  <path id="Path_22" data-name="Path 22" d="M1023.281,327.706a5.075,5.075,0,1,0-2.541-9.8A14.759,14.759,0,0,1,1023.281,327.706Z" transform="translate(-793.826 -261.05)" fill="#f1f1f1"/>
  <path id="Path_23" data-name="Path 23" d="M1054.471,319.576a5.075,5.075,0,1,0-2.542-9.8A14.759,14.759,0,0,1,1054.471,319.576Z" transform="translate(-817.144 -254.972)" fill="#f1f1f1"/>
  <path id="Path_24" data-name="Path 24" d="M976.488,309.624a5.075,5.075,0,0,1-2.541-9.8,14.729,14.729,0,0,0-15.8-5.893A40.433,40.433,0,0,1,966,322.316,14.729,14.729,0,0,0,976.488,309.624Z" transform="translate(-747.032 -242.969)" fill="#f1f1f1"/>
  <path id="Path_25" data-name="Path 25" d="M637.237,374.13a14.736,14.736,0,0,0-11.4,11.683,5.075,5.075,0,0,1,1.63,9.916,14.716,14.716,0,0,0,17.469,6.786A40.443,40.443,0,0,1,637.237,374.13Z" transform="translate(-498.589 -303.28)" fill="#f1f1f1"/>
  <path id="Path_26" data-name="Path 26" d="M611.087,420.42a5.078,5.078,0,1,0,1.63,9.916A14.774,14.774,0,0,1,611.087,420.42Z" transform="translate(-483.831 -337.888)" fill="#f1f1f1"/>
  <path id="Path_27" data-name="Path 27" d="M574.3,429.12a5.078,5.078,0,1,0,1.63,9.916,14.792,14.792,0,0,1-1.63-9.916Z" transform="translate(-456.326 -344.392)" fill="#f1f1f1"/>
  <path id="Path_28" data-name="Path 28" d="M872.86,246l-8.18,10.022a14.323,14.323,0,0,1,1.032,1.928l9-11.031C874.1,246.583,873.485,246.275,872.86,246Z" transform="translate(-677.151 -207.487)" fill="#f1f1f1"/>
  <path id="Path_29" data-name="Path 29" d="M751.319,276.151a14.728,14.728,0,1,1-7.849-28.391,40.693,40.693,0,0,0-12.056-10.71l2.216,1.81L722.172,252.9a14.729,14.729,0,1,1-18.363-13.941l-.921-.757,5.3-6.489A40.38,40.38,0,0,0,671,267.654a14.726,14.726,0,0,1,7.708,28.385,40.38,40.38,0,0,0,72.611-19.887Zm-43.724,26.7a14.731,14.731,0,1,1,20.725-2.1A14.731,14.731,0,0,1,707.595,302.85Z" transform="translate(-532.352 -196.804)" fill="#f1f1f1"/>
  <path id="Path_30" data-name="Path 30" d="M827.5,231.922q-1.2-.159-2.408-.252L819.52,238.5a14.528,14.528,0,0,1,2.322.346Z" transform="translate(-643.389 -196.774)" fill="#f1f1f1"/>
  <path id="Path_31" data-name="Path 31" d="M847.735,245.549l6.781-8.308q-1.045-.341-2.1-.621l-6.327,7.75a15.033,15.033,0,0,1,1.575,1.118Z" transform="translate(-663.253 -200.475)" fill="#f1f1f1"/>
</svg>
