<svg xmlns="http://www.w3.org/2000/svg" width="228.617" height="159.8" viewBox="0 0 228.617 159.8">
  <g id="_2" data-name="2" transform="translate(-0.003 0)">
    <path id="Path_32" data-name="Path 32" d="M164.819,303.549c.219,13.5,5.263,14.957,11.457,13.55a22.764,22.764,0,0,0,15.747-13.317l1.974-4.6a12.545,12.545,0,0,0-6.579-16.477h0a12.545,12.545,0,0,0-16.477,6.579C164.589,291.781,163.335,296.948,164.819,303.549Z" transform="translate(-154.634 -242.224)" fill="#2f2e41"/>
    <path id="Path_33" data-name="Path 33" d="M292.719,235.032l1.9-3.217a3.022,3.022,0,0,0-1.708-4.425h0A3.022,3.022,0,0,0,289,230.375l.112,3.458-8.935,24.487,4.872,1.017Z" transform="translate(-242.702 -200.87)" fill="#9f616a"/>
    <path id="Path_34" data-name="Path 34" d="M127.223,438.26l-2.34,2.914a3.022,3.022,0,0,0,1.06,4.623h0a3.022,3.022,0,0,0,4.3-2.4l.382-3.439L142.958,417l-4.678-1.7Z" transform="translate(-124.215 -343.733)" fill="#9f616a"/>
    <path id="Path_35" data-name="Path 35" d="M196.912,523.016l.344,4.138.081.965,22.9-2.2a5.05,5.05,0,0,0,4.044-7.081L216.9,502.977l-2.552-5.477-11.057-2.552c-9.118,6.979-.914,14.68,9.407,22.471q.606.459,1.225.919Z" transform="translate(-179.444 -404.249)" fill="#2f2e41"/>
    <path id="Path_36" data-name="Path 36" d="M160.321,621.842h0a1.646,1.646,0,0,0,1.5-.581l7.492-9.07-.425-4.253-2.555-1.533a1.679,1.679,0,0,0-2.425.823l-4.887,12.38a1.646,1.646,0,0,0,1.3,2.233Z" transform="translate(-150.571 -488.747)" fill="#2f2e41"/>
    <path id="Path_37" data-name="Path 37" d="M191.6,522.166l.425,5.1,1.2-.115,21.71-2.088a5.05,5.05,0,0,0,4.044-7.081L212.865,504.3v-1.327l-2.552-5.477-11.057-2.552c-9.118,6.979-.914,14.68,9.407,22.471l-.051.068Z" transform="translate(-175.41 -404.249)" opacity="0.2"/>
    <path id="Path_38" data-name="Path 38" d="M151.47,614.762h0a1.646,1.646,0,0,0,1.5-.581l7.492-9.07-.425-4.253-2.555-1.533a1.679,1.679,0,0,0-2.425.823l-4.887,12.379a1.646,1.646,0,0,0,1.3,2.233Z" transform="translate(-143.847 -483.368)" fill="#2f2e41"/>
    <path id="Path_39" data-name="Path 39" d="M188.062,515.936l.425,5.1,22.9-2.2a5.051,5.051,0,0,0,4.046-7.08l-6.113-13.681V490.42l-14.884-2.552c-9.476,7.253-.243,15.287,10.632,23.39Z" transform="translate(-172.72 -398.87)" fill="#2f2e41"/>
    <circle id="Ellipse_7" data-name="Ellipse 7" cx="6.379" cy="6.379" r="6.379" transform="translate(23.422 44.346)" fill="#9f616a"/>
    <path id="Path_40" data-name="Path 40" d="M212.843,351.3l8.931,5.954,7.655-1.7-4.253-4.253v-6.379l-6.8-.425C218.229,347.041,216.769,349.372,212.843,351.3Z" transform="translate(-191.548 -289.942)" fill="#9f616a"/>
    <path id="Path_41" data-name="Path 41" d="M206.392,398.549l16.585,2.126,3.827-17.861c1.778-4.741.758-8.93-2.534-12.67a2.841,2.841,0,0,0-2.7-2.282L220,367.93c.178,5.64-3.978,4.282-10.206-.425l-.752.226a4.224,4.224,0,0,0-2.965,4.665l.686,4.629a31.672,31.672,0,0,0,1.35,5.4C209.813,387.5,209.205,392.884,206.392,398.549Z" transform="translate(-186.372 -307.424)" fill="#6c63ff"/>
    <path id="Path_42" data-name="Path 42" d="M175.672,383.305l7.655,2.552,3.4-12.333L185.576,373a4.133,4.133,0,0,0-5.354,1.811Z" transform="translate(-163.307 -311.317)" fill="#6c63ff"/>
    <path id="Path_43" data-name="Path 43" d="M145.27,230.322,149.523,235l5.1-8.08-6.379-3.4Z" transform="translate(-110.366 -169.816)" fill="#6c63ff"/>
    <path id="Path_44" data-name="Path 44" d="M217.268,304.461c4.009,1.512,8.286,1.355,12.758,0v-5.1H217.268Z" transform="translate(-194.91 -255.65)" fill="#2f2e41"/>
    <path id="Path_45" data-name="Path 45" d="M729.916,395.1l-4.4,1.832L696.2,356.991,674.944,397.67l-5.5-1.1L685.572,340.5h18.69Z" transform="translate(-508.607 -258.693)" fill="#2f2e41"/>
    <path id="Path_46" data-name="Path 46" d="M1032.972,693.375h0a1.916,1.916,0,0,1-1.46-.188l-9.275-5.34a1.882,1.882,0,0,1-.392-2.962l.829-.829,4.4-.366,6.723,6.454a1.916,1.916,0,0,1-.823,3.231Z" transform="translate(-805.764 -547.644)" fill="#2f2e41"/>
    <path id="Path_47" data-name="Path 47" d="M766.165,699.477h0a1.916,1.916,0,0,0,1.46-.188l9.275-5.34a1.882,1.882,0,0,0,.392-2.962l-.829-.829-4.4-.366-6.723,6.454a1.916,1.916,0,0,0,.823,3.231Z" transform="translate(-610.858 -552.28)" fill="#2f2e41"/>
    <path id="Path_48" data-name="Path 48" d="M789.811,185.992l-1.832,1.1-3.8-6.171a2.775,2.775,0,0,1,1.792-4.17h0a2.775,2.775,0,0,1,3.339,2.511Z" transform="translate(-625.306 -162.454)" fill="#ffb9b9"/>
    <path id="Path_49" data-name="Path 49" d="M1020.19,409.046l.76-2,6.8,2.5a2.775,2.775,0,0,1,1.17,4.385h0a2.775,2.775,0,0,1-4.177.092Z" transform="translate(-804.926 -337.467)" fill="#ffb9b9"/>
    <circle id="Ellipse_8" data-name="Ellipse 8" cx="5.497" cy="5.497" r="5.497" transform="translate(180.996 34.532)" fill="#ffb9b9"/>
    <path id="Path_50" data-name="Path 50" d="M771.715,186.448h-7.7v-8.429l6.6-.733Z" transform="translate(-580.458 -134.692)" fill="#ffb9b9"/>
    <path id="Path_51" data-name="Path 51" d="M877.09,347.671H856.2c.737-11.655,1.32-22.919,0-29.318l1.215-5.83a3.285,3.285,0,0,1,3.623-2.59l2.858.357c1.936,3.4,4.275,3.37,6.963.366H874.3a3.451,3.451,0,0,1,3.451,3.52h0a43.6,43.6,0,0,1,.886,12.513Z" transform="translate(-680.336 -263.665)" fill="#3f3d56"/>
    <path id="Path_52" data-name="Path 52" d="M672.5,93.332l2.932-1.466,15.759,26.02-4.4,6.6Z" transform="translate(-510.924 -69.794)" fill="#3f3d56"/>
    <path id="Path_53" data-name="Path 53" d="M947.746,338.386l2.505-2.113-13.313-18.655a11.8,11.8,0,0,0-11.735-4.751l-.42.077,5.034,8.81,6.63,5.02Z" transform="translate(-732.441 -265.765)" fill="#3f3d56"/>
    <path id="Path_54" data-name="Path 54" d="M887.269,253.566a2.4,2.4,0,0,0-1.644-3.287s-2.26-3.7-6.78-1.233a5.09,5.09,0,0,0-3.082,4.52c0,3.287-1.027,3.9-1.027,3.9a9.915,9.915,0,0,0,1.941-2.8c.411-1.233,3.606-1.512,4.839-.28s4.314,1.027,4.314,1.027l-.205,4.52s1.027-2.671,1.438-2.671S887.885,253.566,887.269,253.566Z" transform="translate(-694.419 -216.782)" fill="#2f2e41"/>
    <ellipse id="Ellipse_9" data-name="Ellipse 9" cx="33.636" cy="1.752" rx="33.636" ry="1.752" transform="translate(158.707 156.297)" fill="#e6e6e6"/>
    <ellipse id="Ellipse_10" data-name="Ellipse 10" cx="17.779" cy="0.926" rx="17.779" ry="0.926" transform="translate(6.626 157.123)" fill="#e6e6e6"/>
    <path id="Path_55" data-name="Path 55" d="M434.863,148.258,326.78,157.945a2.012,2.012,0,0,1-2.181-1.822l-2.4-26.811a2.012,2.012,0,0,1,1.822-2.181L432.1,117.444a2.012,2.012,0,0,1,2.181,1.822l2.4,26.811A2.012,2.012,0,0,1,434.863,148.258Z" transform="translate(-274.622 -117.436)" fill="#6c63ff"/>
    <circle id="Ellipse_11" data-name="Ellipse 11" cx="8.44" cy="8.44" r="8.44" transform="translate(56.348 15.406)" fill="#fff"/>
    <path id="Path_56" data-name="Path 56" d="M468.536,167.382a1.407,1.407,0,0,0,.251,2.8l66.051-5.92a1.407,1.407,0,1,0-.251-2.8Z" transform="translate(-384.836 -150.88)" fill="#fff"/>
    <path id="Path_57" data-name="Path 57" d="M471.672,202.372a1.407,1.407,0,1,0,.251,2.8l66.051-5.92a1.407,1.407,0,0,0-.251-2.8Z" transform="translate(-387.219 -177.464)" fill="#fff"/>
  </g>
</svg>
