<svg xmlns="http://www.w3.org/2000/svg" xmlns:xlink="http://www.w3.org/1999/xlink" width="251.507" height="145.04" viewBox="0 0 251.507 145.04">
  <defs>
    <clipPath id="clip-path">
      <path id="Path_62" data-name="Path 62" d="M621.349,272.271l-1.964-4.783L593.2,278.237a3.234,3.234,0,0,0-2,2.99v28.289h5.172V282.533Z" transform="translate(-591.198 -267.488)" fill="none"/>
    </clipPath>
    <linearGradient id="linear-gradient" x1="2.983" y1="8.617" x2="2.983" y2="9.617" gradientUnits="objectBoundingBox">
      <stop offset="0" stop-opacity="0.122"/>
      <stop offset="0.55" stop-opacity="0.09"/>
      <stop offset="1" stop-opacity="0.02"/>
    </linearGradient>
  </defs>
  <g id="_3" data-name="3" transform="translate(-0.001 -0.009)">
    <path id="Path_58" data-name="Path 58" d="M5.016,192.036H87.739A4.061,4.061,0,0,1,91.8,196.1v6.45H.955V196.1a4.061,4.061,0,0,1,4.061-4.061Z" transform="translate(-0.677 -136.329)" fill="#3f3d56"/>
    <path id="Path_59" data-name="Path 59" d="M259.9,358.116a3.726,3.726,0,0,0-1.2.2,2.248,2.248,0,0,0-4.43.546c0,.011,0,.022,0,.033a3.863,3.863,0,0,0-.828.172,2.261,2.261,0,0,0-1.113-1.435,3.767,3.767,0,0,0,1.625-1.778,3.019,3.019,0,1,0-.061-6,3.724,3.724,0,0,0-1.2.2,2.245,2.245,0,1,0-4.316,1.22c-.09.062-.173.133-.257.2a2.132,2.132,0,0,0-1.535-.511,3.739,3.739,0,0,0-7.27,1.164,3.843,3.843,0,0,0-.886.177,2.251,2.251,0,0,0-.13-.371,2.821,2.821,0,0,0,.955-2.086,3.207,3.207,0,0,0-3.378-3,3.725,3.725,0,0,0-1.2.2,2.245,2.245,0,1,0-4.316,1.22,3.744,3.744,0,0,0-1.6,2.9c-.032.028-.068.051-.1.081a2.675,2.675,0,0,0,.087-.657,3.207,3.207,0,0,0-3.378-3,3.725,3.725,0,0,0-1.2.2,2.245,2.245,0,1,0-4.316,1.22,3.744,3.744,0,0,0,0,6.16,2.048,2.048,0,0,0,0,1.347,3.791,3.791,0,0,0-.961.97,2.238,2.238,0,0,0-4.386.379,3.576,3.576,0,0,0-.965-.39,3.774,3.774,0,0,0,1.379-1.638,3.019,3.019,0,1,0-.061-6,3.725,3.725,0,0,0-1.2.2,2.245,2.245,0,1,0-4.316,1.22c-.048.034-.092.073-.138.109-.117-.011-.231-.031-.351-.031a3.725,3.725,0,0,0-1.2.2c-.014-.057-.038-.109-.056-.164a2.212,2.212,0,0,0-2.3-2.678,3.75,3.75,0,1,0-5.894,4.178,3.888,3.888,0,0,0-.76.166,2.232,2.232,0,0,0-3.575-1.208,3.511,3.511,0,0,0-2.732-1.249,3.726,3.726,0,0,0-1.2.2,2.245,2.245,0,1,0-4.316,1.22,3.746,3.746,0,0,0-1.616,3.08c0,.012,0,.022,0,.034a3.114,3.114,0,0,0-1.579.171,2.245,2.245,0,1,0-4.316,1.22,3.739,3.739,0,0,0,2.955,6.734,3.741,3.741,0,0,0,7.068.96,3.741,3.741,0,0,0,6.817-.115,3.735,3.735,0,0,0,1.293-.25,3.74,3.74,0,0,0,6.966.25,3.672,3.672,0,0,0,1.575-.39,3.737,3.737,0,0,0,6.684-.361,3.786,3.786,0,0,0,.6-.063,3.75,3.75,0,0,0,6.907.063,3.736,3.736,0,0,0,.872-.129,3.66,3.66,0,0,0,4.065-1.552,3.752,3.752,0,0,0,7.075,2.432,3.672,3.672,0,0,0,1.575-.39,3.737,3.737,0,0,0,6.684-.361,3.672,3.672,0,0,0,1.575-.39,3.715,3.715,0,0,0,5.565,1.079,3.738,3.738,0,0,0,6.686,1.551,3.728,3.728,0,0,0,5.694-1.489,3.019,3.019,0,1,0-.061-6Zm-67.1-1.549c0,.018-.007.037-.01.055-.027,0-.053-.007-.081-.007a2.245,2.245,0,0,0-.335.034c.006-.014.015-.026.021-.039A3.74,3.74,0,0,0,192.794,356.566Zm31.367-1.249c-.011-.044-.03-.084-.043-.127a3.772,3.772,0,0,0,1.305-1.585,3.515,3.515,0,0,0,2.61-1.182,2.26,2.26,0,0,0-.044.437,2.228,2.228,0,0,0,.114.674,3.768,3.768,0,0,0-1.4,1.83,3.684,3.684,0,0,0-2.547-.047Zm22.486.28c0-.046,0-.093,0-.139a2.243,2.243,0,0,0,.286-.019,3.722,3.722,0,0,0,.715,1.325c-.071.02-.145.032-.215.055a2.264,2.264,0,0,0-.788-1.222Z" transform="translate(-174.406 -303.159)" fill="#f9a825"/>
    <path id="Path_60" data-name="Path 60" d="M174.287,404.95a7.839,7.839,0,0,0-7.828,8.26l5.084,69.909a7.838,7.838,0,0,0,7.828,7.42h65.551a7.839,7.839,0,0,0,7.828-7.421l5.084-69.908a7.839,7.839,0,0,0-7.828-8.26Z" transform="translate(-166.446 -345.489)" fill="#3f3d56"/>
    <rect id="Rectangle_3" data-name="Rectangle 3" width="4.505" height="85.589" transform="translate(11.54 59.461)" fill="#6c63ff"/>
    <rect id="Rectangle_4" data-name="Rectangle 4" width="4.505" height="85.589" transform="translate(24.303 59.461)" fill="#6c63ff"/>
    <rect id="Rectangle_5" data-name="Rectangle 5" width="4.505" height="85.589" transform="translate(37.066 59.461)" fill="#6c63ff"/>
    <rect id="Rectangle_6" data-name="Rectangle 6" width="4.505" height="85.589" transform="translate(49.829 59.461)" fill="#6c63ff"/>
    <rect id="Rectangle_7" data-name="Rectangle 7" width="4.505" height="85.589" transform="translate(62.592 59.461)" fill="#6c63ff"/>
    <rect id="Rectangle_8" data-name="Rectangle 8" width="4.505" height="85.589" transform="translate(75.356 59.461)" fill="#6c63ff"/>
    <path id="_2572ddba-42e8-4159-9036-35cbff74dfb7" data-name="2572ddba-42e8-4159-9036-35cbff74dfb7" d="M621.349,272.271l-1.964-4.783L593.2,278.237a3.234,3.234,0,0,0-2,2.99v28.289h5.172V282.533Z" transform="translate(-467.996 -247.898)" fill="#3f3d56"/>
    <g id="Group_8" data-name="Group 8" transform="translate(123.202 19.59)" clip-path="url(#clip-path)">
      <rect id="Rectangle_9" data-name="Rectangle 9" width="5.639" height="17.859" transform="translate(21.148 -5.198)" fill="#6c63ff"/>
      <rect id="Rectangle_10" data-name="Rectangle 10" width="5.639" height="17.859" transform="translate(12.22 -1.439)" fill="#6c63ff"/>
      <path id="Path_61" data-name="Path 61" d="M442.541,71.506l-3.994,1.175L436.9,53.647h5.639Z" transform="translate(-433.378 -57.67)" fill="#6c63ff"/>
      <rect id="Rectangle_11" data-name="Rectangle 11" width="17.859" height="5.639" transform="translate(-5.407 15.95)" fill="#6c63ff"/>
      <rect id="Rectangle_12" data-name="Rectangle 12" width="17.859" height="5.639" transform="translate(-5.404 23.706)" fill="#6c63ff"/>
      <rect id="Rectangle_13" data-name="Rectangle 13" width="17.859" height="5.639" transform="translate(-5.407 31.462)" fill="#6c63ff"/>
    </g>
    <path id="Path_63" data-name="Path 63" d="M392.405,292.987H357.863l-8.461-84.6h50.524Z" transform="translate(-248.056 -147.937)" fill="#3f3d56"/>
    <rect id="Rectangle_14" data-name="Rectangle 14" width="57.808" height="5.639" transform="translate(97.822 59.04)" fill="#3f3d56"/>
    <circle id="Ellipse_12" data-name="Ellipse 12" cx="19.428" cy="19.428" r="19.428" transform="translate(195.013 0.062)" fill="#3ad29f"/>
    <path id="Path_64" data-name="Path 64" d="M736.067,43.784l-19.445,9.554V34.23Z" transform="translate(-508.762 -24.295)" fill="url(#linear-gradient)"/>
    <path id="Path_65" data-name="Path 65" d="M737.752,46.589,720.642,55V38.18Z" transform="translate(-511.616 -27.099)" fill="#fff"/>
    <path id="Path_66" data-name="Path 66" d="M840.262,221.692a19.434,19.434,0,0,1,34.406-12.374,19.434,19.434,0,1,0-31.549,22.52A19.334,19.334,0,0,1,840.262,221.692Z" transform="translate(-643.659 -199.972)" fill="#fff" opacity="0.2"/>
    <path id="Path_67" data-name="Path 67" d="M891.9,614.78a.855.855,0,0,0-.855.854v23.019a.855.855,0,0,0,.855.854h39.625a.855.855,0,0,0,.855-.854V615.634a.855.855,0,0,0-.855-.854Z" transform="translate(-680.873 -494.457)" fill="#3f3d56"/>
    <path id="Path_68" data-name="Path 68" d="M905.365,621.779a1.594,1.594,0,0,0-1.592,1.592v17.483a1.594,1.594,0,0,0,1.592,1.592h30.769a1.594,1.594,0,0,0,1.592-1.592V623.371a1.594,1.594,0,0,0-1.592-1.592Z" transform="translate(-689.908 -499.426)" fill="#ff6584"/>
    <rect id="Rectangle_15" data-name="Rectangle 15" width="20.641" height="4.781" transform="translate(190.833 127.906)" fill="#3f3d56"/>
    <path id="Path_69" data-name="Path 69" d="M698.449,614.78a.855.855,0,0,0-.854.854v23.019a.855.855,0,0,0,.854.854h39.626a.855.855,0,0,0,.854-.854V615.634a.855.855,0,0,0-.854-.854Z" transform="translate(-543.532 -494.457)" fill="#3f3d56"/>
    <path id="Path_70" data-name="Path 70" d="M711.911,621.779a1.594,1.594,0,0,0-1.593,1.592v17.483a1.594,1.594,0,0,0,1.593,1.592h30.768a1.594,1.594,0,0,0,1.593-1.592V623.371a1.594,1.594,0,0,0-1.593-1.592Z" transform="translate(-552.565 -499.426)" fill="#6c63ff"/>
  </g>
</svg>
